<svg width="280" height="69" viewBox="0 0 280 69" fill="none" xmlns="http://www.w3.org/2000/svg">
<ellipse cx="4.16305" cy="4.20455" rx="4.16305" ry="4.20455" fill="white" fill-opacity="0.06"/>
<ellipse cx="4.16305" cy="54.6586" rx="4.16305" ry="4.20455" fill="white" fill-opacity="0.06"/>
<ellipse cx="203.989" cy="4.20455" rx="4.16305" ry="4.20455" fill="white" fill-opacity="0.06"/>
<ellipse cx="203.989" cy="54.6586" rx="4.16305" ry="4.20455" fill="white" fill-opacity="0.06"/>
<ellipse cx="4.16305" cy="29.4321" rx="4.16305" ry="4.20455" fill="white" fill-opacity="0.06"/>
<ellipse cx="203.989" cy="29.4321" rx="4.16305" ry="4.20455" fill="white" fill-opacity="0.06"/>
<ellipse cx="104.076" cy="4.20455" rx="4.16305" ry="4.20455" fill="white" fill-opacity="0.06"/>
<ellipse cx="104.076" cy="54.6586" rx="4.16305" ry="4.20455" fill="white" fill-opacity="0.06"/>
<ellipse cx="104.076" cy="29.4321" rx="4.16305" ry="4.20455" fill="white" fill-opacity="0.06"/>
<ellipse cx="54.1191" cy="4.20455" rx="4.16305" ry="4.20455" fill="white" fill-opacity="0.06"/>
<ellipse cx="54.1191" cy="54.6586" rx="4.16305" ry="4.20455" fill="white" fill-opacity="0.06"/>
<ellipse cx="253.946" cy="4.20455" rx="4.16305" ry="4.20455" fill="white" fill-opacity="0.06"/>
<ellipse cx="253.946" cy="54.6586" rx="4.16305" ry="4.20455" fill="white" fill-opacity="0.06"/>
<ellipse cx="54.1191" cy="29.4321" rx="4.16305" ry="4.20455" fill="white" fill-opacity="0.06"/>
<ellipse cx="253.946" cy="29.4321" rx="4.16305" ry="4.20455" fill="white" fill-opacity="0.06"/>
<ellipse cx="154.032" cy="4.20455" rx="4.16305" ry="4.20455" fill="white" fill-opacity="0.06"/>
<ellipse cx="154.032" cy="54.6586" rx="4.16305" ry="4.20455" fill="white" fill-opacity="0.06"/>
<ellipse cx="154.032" cy="29.4321" rx="4.16305" ry="4.20455" fill="white" fill-opacity="0.06"/>
<ellipse cx="29.1416" cy="4.20455" rx="4.16305" ry="4.20455" fill="white" fill-opacity="0.06"/>
<ellipse cx="29.1416" cy="54.6586" rx="4.16305" ry="4.20455" fill="white" fill-opacity="0.06"/>
<ellipse cx="228.968" cy="4.20455" rx="4.16305" ry="4.20455" fill="white" fill-opacity="0.06"/>
<ellipse cx="228.968" cy="54.6586" rx="4.16305" ry="4.20455" fill="white" fill-opacity="0.06"/>
<ellipse cx="29.1416" cy="29.4321" rx="4.16305" ry="4.20455" fill="white" fill-opacity="0.06"/>
<ellipse cx="228.968" cy="29.4321" rx="4.16305" ry="4.20455" fill="white" fill-opacity="0.06"/>
<ellipse cx="129.054" cy="4.20455" rx="4.16305" ry="4.20455" fill="white" fill-opacity="0.06"/>
<ellipse cx="129.054" cy="54.6586" rx="4.16305" ry="4.20455" fill="white" fill-opacity="0.06"/>
<ellipse cx="129.054" cy="29.4321" rx="4.16305" ry="4.20455" fill="white" fill-opacity="0.06"/>
<ellipse cx="79.0976" cy="4.20455" rx="4.16305" ry="4.20455" fill="white" fill-opacity="0.06"/>
<ellipse cx="79.0976" cy="54.6586" rx="4.16305" ry="4.20455" fill="white" fill-opacity="0.06"/>
<ellipse cx="278.924" cy="4.20455" rx="4.16305" ry="4.20455" fill="white" fill-opacity="0.06"/>
<ellipse cx="278.924" cy="54.6586" rx="4.16305" ry="4.20455" fill="white" fill-opacity="0.06"/>
<ellipse cx="79.0976" cy="29.4321" rx="4.16305" ry="4.20455" fill="white" fill-opacity="0.06"/>
<ellipse cx="278.924" cy="29.4321" rx="4.16305" ry="4.20455" fill="white" fill-opacity="0.06"/>
<ellipse cx="179.012" cy="4.20455" rx="4.16305" ry="4.20455" fill="white" fill-opacity="0.06"/>
<ellipse cx="179.012" cy="54.6586" rx="4.16305" ry="4.20455" fill="white" fill-opacity="0.06"/>
<ellipse cx="179.012" cy="29.4321" rx="4.16305" ry="4.20455" fill="white" fill-opacity="0.06"/>
</svg>
